<svg width="496" height="512" xmlns="http://www.w3.org/2000/svg" class="svg-inline--fa fa-compact-disc fa-w-16">

 <g>
  <title>Layer 1</title>
  <path id="svg_1" d="m248,8c-137,0 -248,111 -248,248s111,248 248,248s248,-111 248,-248s-111,-248 -248,-248zm-160,248l-32,0c0,-105.9 86.1,-192 192,-192l0,32c-88.2,0 -160,71.8 -160,160zm160,96c-53,0 -96,-43 -96,-96s43,-96 96,-96s96,43 96,96s-43,96 -96,96zm0,-128c-17.7,0 -32,14.3 -32,32s14.3,32 32,32s32,-14.3 32,-32s-14.3,-32 -32,-32z" fill="currentColor"/>
  <ellipse ry="98" rx="98" id="svg_2" cy="255" cx="248.5" opacity="undefined" stroke="#000" fill="#ff4d6b"/>
  <rect transform="rotate(33.829, 143.124, 153.062)" id="svg_4" height="266.13874" width="69.43454" y="19.99237" x="108.40627" opacity="undefined" stroke-opacity="null" stroke-dasharray="null" stroke-width="null" stroke="#000" fill="#000000"/>
  <rect transform="rotate(33.829, 110.124, 153.562)" id="svg_5" height="212.65606" width="50.445" y="47.23349" x="84.90126" opacity="undefined" stroke-opacity="null" stroke-dasharray="null" stroke-width="null" stroke="#000" fill="#000000"/>
  <rect transform="rotate(33.829, 240.974, 80.4871)" id="svg_6" height="75.60179" width="50.445" y="42.68624" x="215.75141" opacity="undefined" stroke-opacity="null" stroke-dasharray="null" stroke-width="null" stroke="#000" fill="#000000"/>
 </g>
</svg>