<?xml version="1.0" encoding="UTF-8"?>
<svg width="224px" height="81px" viewBox="0 0 224 81" version="1.1" xmlns="http://www.w3.org/2000/svg" xmlns:xlink="http://www.w3.org/1999/xlink">
    <title>Combined Shape</title>
    <g id="Symbols" stroke="none" stroke-width="1" fill="none" fill-rule="evenodd">
        <g id="Footer" transform="translate(-1216.000000, -232.000000)" fill="#FAE641">
            <path d="M1275.59964,246.999844 L1275.59515,259.0001 L1275.59515,283.00662 L1253.92823,295.006876 L1253.92823,307.000122 L1243.09227,313 L1243.08829,276.999232 L1243.08729,277.000234 L1226.83585,267.999917 L1226.83585,255.999661 L1243.09227,264.999978 L1275.59964,246.999844 Z M1226.84064,280.000373 L1232.25612,283.000312 L1232.25612,295.000567 L1216.0002,286.00025 L1226.84064,280.000373 Z M1406.44975,268.058944 C1408.18416,268.058944 1409.70482,268.308772 1410.96739,268.80242 C1412.23992,269.301075 1413.24838,269.984472 1413.96337,270.83559 C1414.61789,271.614339 1415.03728,272.497772 1415.21369,273.464447 L1415.25932,273.756925 L1415.29968,274.07284 L1411.99129,274.07284 L1411.94545,273.849046 C1411.7611,272.930841 1411.22498,272.231923 1410.3092,271.712241 C1409.37448,271.181544 1408.07554,270.912691 1406.44975,270.912691 C1404.82695,270.912691 1403.5589,271.190055 1402.67949,271.736272 C1401.80705,272.278985 1401.21364,272.918825 1400.91767,273.63877 C1400.61125,274.380244 1400.45729,275.123219 1400.45729,275.846669 C1400.45729,276.554599 1400.62769,277.291065 1400.96351,278.036044 C1401.29186,278.763999 1401.91766,279.409347 1402.82498,279.954062 C1403.73927,280.502282 1405.0387,280.780147 1406.68991,280.780147 C1407.88172,280.780147 1408.89367,280.697538 1409.69934,280.534324 C1410.32797,280.407491 1410.99327,280.207297 1411.68372,279.93809 L1412.10091,279.768318 L1412.10091,277.937414 L1405.99086,277.937414 L1405.99086,275.244879 L1415.26131,275.244879 L1415.26131,281.225732 L1415.11582,281.305336 C1413.60612,282.131421 1412.19358,282.722196 1410.91657,283.061141 C1409.63806,283.401088 1408.20907,283.573314 1406.66898,283.573314 C1404.74324,283.573314 1403.04471,283.257399 1401.62071,282.634081 C1400.18226,282.005255 1399.06269,281.097063 1398.29538,279.936539 C1397.52708,278.775014 1397.13695,277.392198 1397.13695,275.826643 C1397.13695,274.261588 1397.51163,272.87727 1398.25203,271.711239 C1398.99194,270.542705 1400.07762,269.630507 1401.47771,268.999679 C1402.86334,268.375359 1404.53697,268.058944 1406.44975,268.058944 Z M1422.16911,268.461823 L1428.8646,279.398683 L1435.53966,268.461823 L1440,268.461823 L1440,283.171136 L1436.87946,283.171136 L1436.87946,272.095093 L1430.18297,283.171136 L1427.5258,283.171136 L1420.82881,272.095093 L1420.82881,283.171136 L1417.70877,283.171136 L1417.70877,268.461823 L1422.16911,268.461823 Z M1322.21666,268.461823 L1330.6904,283.171136 L1327.14336,283.171136 L1325.39998,280.111619 L1315.48529,280.111619 L1313.74341,283.171136 L1310.17543,283.171136 L1318.65018,268.461823 L1322.21666,268.461823 Z M1342.96899,268.461973 C1344.74276,268.461973 1346.14932,268.828454 1347.14882,269.550402 C1348.17471,270.294379 1348.69539,271.457907 1348.69539,273.008443 C1348.69539,274.665618 1348.08802,275.880213 1346.88723,276.628195 C1347.30527,276.79191 1347.64856,277.037232 1347.91164,277.360156 C1348.27262,277.803088 1348.47338,278.372951 1348.50992,279.056242 L1348.51601,279.288188 L1348.51601,283.171286 L1345.4154,283.171286 L1345.4154,279.912507 C1345.4154,279.346765 1345.34066,279.052879 1345.27739,278.906186 C1345.20115,278.729955 1345.06762,278.608295 1344.86683,278.534698 C1344.66013,278.458312 1344.34946,278.414295 1343.94174,278.403278 L1343.72982,278.400522 L1335.29444,278.400522 L1335.29444,283.171286 L1332.17389,283.171286 L1332.17389,268.461973 L1342.96899,268.461973 Z M1362.03993,268.461823 L1370.51368,283.171136 L1366.96663,283.171136 L1365.22325,280.111619 L1355.30857,280.111619 L1353.56668,283.171136 L1349.99871,283.171136 L1358.47345,268.461823 L1362.03993,268.461823 Z M1382.35136,268.461673 C1383.55079,268.461673 1384.66374,268.688417 1385.66476,269.135134 L1385.96169,269.275742 C1387.04688,269.821959 1387.92529,270.657556 1388.57103,271.759002 C1389.21427,272.857444 1389.54012,274.225741 1389.54012,275.826342 C1389.54012,277.414427 1389.21427,278.775715 1388.57103,279.873156 C1387.92529,280.975603 1387.04688,281.8107 1385.96169,282.356416 C1384.9833,282.847971 1383.89127,283.118988 1382.7088,283.164201 L1382.35136,283.170986 L1371.99722,283.170986 L1371.99722,268.461673 L1382.35136,268.461673 Z M1394.90803,268.461673 L1394.90803,283.170986 L1391.78798,283.170986 L1391.78798,268.461673 L1394.90803,268.461673 Z M1305.79038,268.461673 C1306.91045,268.461673 1307.90944,268.674953 1308.75796,269.094504 C1309.61794,269.519562 1310.29706,270.144883 1310.77737,270.953444 C1311.2542,271.759002 1311.49685,272.721266 1311.49685,273.813199 C1311.49685,274.892116 1311.2542,275.847871 1310.77737,276.653929 C1310.29706,277.462491 1309.61794,278.087311 1308.75796,278.512369 C1307.99429,278.890415 1307.10874,279.100571 1306.12274,279.138822 L1305.79038,279.1452 L1297.73467,279.1452 L1297.73467,283.170986 L1294.61462,283.170986 L1294.61462,268.461673 L1305.79038,268.461673 Z M1264.76368,265.006486 L1253.92823,271.006364 L1253.92823,283.00662 L1264.7592,277.006242 L1264.76368,265.006486 Z M1381.04894,271.31542 L1375.11776,271.31542 L1375.11776,280.317739 L1381.04894,280.317739 C1382.29456,280.317739 1383.30551,280.187068 1384.05438,279.92973 C1384.77685,279.681404 1385.30848,279.251339 1385.67669,278.614503 C1386.05038,277.970157 1386.23971,277.032927 1386.23971,275.826342 C1386.23971,274.607242 1386.05038,273.662001 1385.67669,273.018155 C1385.30848,272.38182 1384.77685,271.951255 1384.05438,271.702428 C1383.30551,271.445591 1382.29357,271.31542 1381.04894,271.31542 Z M1320.43342,271.43723 L1317.06773,277.338478 L1323.7991,277.338478 L1320.43342,271.43723 Z M1360.25669,271.43723 L1356.89101,277.338478 L1363.62237,277.338478 L1360.25669,271.43723 Z M1304.76847,271.31542 L1297.73467,271.31542 L1297.73467,276.291954 L1304.76847,276.291954 C1305.4421,276.291954 1306.02954,276.245893 1306.51035,276.155775 C1306.95629,276.072165 1307.33894,275.85538 1307.68124,275.492905 C1308.01059,275.145949 1308.177,274.581208 1308.177,273.813199 C1308.177,273.045191 1308.00959,272.476444 1307.68025,272.12298 C1307.33795,271.754496 1306.95529,271.534708 1306.51035,271.451098 C1306.02605,271.36098 1305.44011,271.31542 1304.76847,271.31542 Z M1342.30831,271.295193 L1335.29444,271.295193 L1335.29444,275.586828 L1342.30831,275.586828 C1342.97148,275.586828 1343.52354,275.547276 1343.95154,275.470675 C1344.34267,275.400583 1344.6755,275.213838 1344.96997,274.899926 C1345.25148,274.599031 1345.39497,274.104882 1345.39497,273.430997 C1345.39497,272.77063 1345.25148,272.283491 1344.96997,271.982596 C1344.6755,271.668684 1344.34167,271.481938 1343.95154,271.411346 C1343.52105,271.334244 1342.96799,271.295193 1342.30831,271.295193 Z M1303.48612,247.930566 C1306.19112,247.930566 1308.33759,248.348114 1309.86772,249.171696 C1311.37765,249.984668 1312.18484,251.184997 1312.27077,252.741976 L1312.27825,252.978194 L1312.28024,253.260064 L1308.97784,253.260064 L1308.97784,252.980697 C1308.97784,252.44199 1308.80794,252.025943 1308.45816,251.709027 C1308.09095,251.375589 1307.4791,251.124259 1306.63905,250.961045 C1305.76512,250.78982 1304.59025,250.703707 1303.14582,250.703707 C1301.83641,250.703707 1300.80404,250.776303 1300.0746,250.919991 C1299.38353,251.056671 1298.90122,251.252428 1298.64113,251.501755 C1298.3955,251.737565 1298.27592,252.036958 1298.27592,252.416957 C1298.27592,252.802964 1298.3935,253.087838 1298.63565,253.288601 C1298.90421,253.511394 1299.41392,253.69113 1300.14934,253.822302 C1300.92661,253.960984 1302.12988,254.085648 1303.72528,254.191286 C1305.98036,254.351997 1307.71179,254.532234 1308.87121,254.727991 C1310.06751,254.929255 1311.03811,255.328279 1311.75409,255.913548 C1312.50097,256.523348 1312.87914,257.439051 1312.87914,258.636623 C1312.87914,260.454009 1312.07845,261.731687 1310.5,262.43511 C1308.99478,263.10549 1306.88469,263.444936 1304.22752,263.444936 C1301.1558,263.444936 1298.76719,263.053422 1297.12844,262.281408 C1295.50042,261.514706 1294.59449,260.221683 1294.43202,258.435201 L1294.41447,258.188535 L1294.39953,257.894148 L1297.73482,257.894148 L1297.73482,258.173515 C1297.73482,258.988084 1298.17627,259.585869 1299.08458,260.002416 C1300.05168,260.447 1301.77563,260.671795 1304.20759,260.671795 C1306.16522,260.671795 1307.58423,260.496064 1308.42877,260.149109 C1309.20255,259.830691 1309.57873,259.382602 1309.57873,258.777808 C1309.57873,258.341235 1309.45915,258.034332 1309.21351,257.839576 C1309.02667,257.691382 1308.59718,257.48461 1307.62359,257.343425 C1306.79999,257.224269 1305.44126,257.103109 1303.58926,256.983452 C1301.5265,256.862293 1299.87231,256.649514 1298.67302,256.351623 C1297.43736,256.04522 1296.50563,255.568595 1295.90375,254.934762 C1295.28741,254.286411 1294.9755,253.398746 1294.9755,252.296298 C1294.9755,250.719228 1295.7463,249.577228 1297.26397,248.90084 C1298.7084,248.256995 1300.80205,247.930566 1303.48612,247.930566 Z M1318.24694,248.333245 L1318.24694,254.27054 L1329.75055,254.27054 L1329.75055,248.333245 L1332.8706,248.333245 L1332.8706,263.042558 L1329.75055,263.042558 L1329.75055,257.124788 L1318.24694,257.124788 L1318.24694,263.042558 L1315.1269,263.042558 L1315.1269,248.333245 L1318.24694,248.333245 Z M1338.80003,248.333245 L1338.80003,263.042558 L1335.67998,263.042558 L1335.67998,248.333245 L1338.80003,248.333245 Z M1356.98981,248.333145 L1356.98981,251.186892 L1344.72986,251.186892 L1344.72986,255.377894 L1355.78803,255.377894 L1355.78803,258.232142 L1344.72986,258.232142 L1344.72986,263.042458 L1341.60981,263.042458 L1341.60981,248.333145 L1356.98981,248.333145 Z M1376.69966,248.333245 L1376.69966,251.186992 L1369.3684,251.186992 L1369.3684,263.042558 L1366.26779,263.042558 L1366.26779,251.186992 L1358.9166,251.186992 L1358.9166,248.333245 L1376.69966,248.333245 Z M1226.83595,232 L1253.92783,246.999694 L1243.09237,252.999572 L1216,237.999878 L1226.83595,232 Z" id="Combined-Shape"></path>
        </g>
    </g>
</svg>