<?xml version="1.0" encoding="utf-8"?>
<!-- Generator: Adobe Illustrator 25.4.1, SVG Export Plug-In . SVG Version: 6.00 Build 0)  -->
<svg version="1.1" id="Layer_1" xmlns="http://www.w3.org/2000/svg" xmlns:xlink="http://www.w3.org/1999/xlink" x="0px" y="0px"
	 viewBox="0 0 1730 224" style="enable-background:new 0 0 1730 224;" xml:space="preserve">
<style type="text/css">
	.st0{enable-background:new    ;}
	.st1{fill:#14232D;}
</style>
<g id="Design">
	<g id="Home" transform="translate(-32.000000, -803.000000)">
		<g id="Hero" transform="translate(25.000000, 0.000000)">
			<g class="st0">
				<path class="st1" d="M30.9,936.2c0,11,8.9,24.5,38.5,24.5c29.9,0,37.3-10.5,37.3-19.1c0-8.6-4.4-13.8-23.1-16.3l-38.5-5.1
					C27.4,917.6,12,906.8,12,887.7c0-25,21.2-39.4,55.8-39.4c39.9,0,57.9,17.3,59.8,41.1h-23.3c-0.7-12.4-12.4-22.9-36.6-22.9
					c-14.9,0-32.2,4.4-32.2,18.7c0,8.2,3.7,13.1,20.3,15.2l33.1,4.4c30.8,4.4,42.7,15.4,42.7,32.4c0,28.5-24,41.8-61.4,41.8
					c-28,0-60-7.2-62.6-42.7H30.9z"/>
				<path class="st1" d="M153,806.7h23.3v64.2h0.5c11.4-17,30.1-22.6,47.9-22.6c29.4,0,51.4,12.6,51.4,43.2v83.3h-23.3v-78.7
					c0-18-11-28.2-36.2-28.2c-21.2,0-40.1,12.4-40.1,36.4v70.5H153V806.7z"/>
				<path class="st1" d="M304.5,806.7h23.3v25.7h-23.3V806.7z M304.5,852.4h23.3v122.3h-23.3V852.4z"/>
				<path class="st1" d="M363.5,834.2c0-22.6,14-30.3,37.6-30.3c7.2,0,13.5,1.2,20.3,1.9V824c-4.4-0.2-8.6-0.5-13.1-0.5
					c-15.2,0-21.5,1.9-21.5,11.9v17h34.5v18.2h-34.5v104.1h-23.3V870.7h-25v-18.2h25V834.2z"/>
				<path class="st1" d="M444.3,814.9h23.3v37.6h35v18.2h-35V946c0,10,7,13.3,18.9,13.3c5.4,0,10.7-0.7,16.1-1.6v19.6
					c-8.2,1.6-16.6,1.6-26.1,1.6c-23.1,0-32.2-11.2-32.2-28.9v-79.4h-25.2v-18.2h25.2V814.9z"/>
				<path class="st1" d="M598.3,852.4h23.3v17h0.5c9.1-12.8,28.5-19.8,46.4-19.8c36.6,0,66.5,23.6,66.5,64.7S705.2,979,668.6,979
					c-18.2,0-37.1-6.8-46.4-19.8h-0.5v62.8h-23.3V852.4z M665.5,869.3c-31.7,0-45.3,21.7-45.3,45c0,28,18.2,45,45.3,45
					c27.3,0,44.8-16.8,44.8-45C710.4,891,697.1,869.3,665.5,869.3z"/>
				<path class="st1" d="M758,890.7c3-30.6,24-42.5,60.7-42.5c25,0,56.3,6.1,56.3,34.8v65.8c0,7,3.5,10.5,10.5,10.5
					c2.6,0,5.6-0.2,8.2-0.9v16.3c-5.6,0.9-12.6,1.4-18.2,1.4c-11.9,0-19.4-3.3-21-17c-9.6,12.6-32.2,19.8-52.1,19.8
					c-40.4,0-49.7-21-49.7-36.9c0-22.6,13.3-33.6,52.5-38l26.6-2.8c13.1-1.2,21.2-3.7,21.2-14.7c0-16.8-16.3-20.1-35.2-20.1
					c-19.8,0-37.1,5.6-37.8,24.3H758z M853,910.8c-3.5,4-9.8,5.6-22.9,7.2l-26.4,3.3c-18.4,2.6-27.8,7-27.8,20.1
					c0,11.4,11.4,19.4,28.5,19.4c26.4,0,48.5-13.8,48.5-34.3V910.8z"/>
				<path class="st1" d="M909.5,852.4h23.3v22.4h0.5c11-19.4,26.4-26.6,42-26.6c5.8,0,8.9,0.2,13.3,1.4v25.2
					c-5.8-1.6-10.3-2.3-16.6-2.3c-23.1,0-39.2,13.8-39.2,40.1v62.1h-23.3V852.4z"/>
				<path class="st1" d="M1004.2,890.7c3-30.6,24-42.5,60.7-42.5c25,0,56.3,6.1,56.3,34.8v65.8c0,7,3.5,10.5,10.5,10.5
					c2.6,0,5.6-0.2,8.2-0.9v16.3c-5.6,0.9-12.6,1.4-18.2,1.4c-11.9,0-19.4-3.3-21-17c-9.6,12.6-32.2,19.8-52.1,19.8
					c-40.4,0-49.7-21-49.7-36.9c0-22.6,13.3-33.6,52.5-38l26.6-2.8c13.1-1.2,21.2-3.7,21.2-14.7c0-16.8-16.3-20.1-35.2-20.1
					c-19.8,0-37.1,5.6-37.8,24.3H1004.2z M1099.2,910.8c-3.5,4-9.8,5.6-22.9,7.2l-26.4,3.3c-18.4,2.6-27.8,7-27.8,20.1
					c0,11.4,11.4,19.4,28.5,19.4c26.4,0,48.5-13.8,48.5-34.3V910.8z"/>
				<path class="st1" d="M1263.8,959.1h-0.5c-9.1,12.8-28.5,19.8-46.4,19.8c-36.6,0-66.5-23.6-66.5-64.7s29.9-64.7,66.5-64.7
					c18,0,37.1,6.8,46.4,19.8h0.5v-62.8h23.3v168.1h-23.3V959.1z M1219.9,959.3c31.7,0,45.3-21.7,45.3-45c0-28-18.2-45-45.3-45
					c-27.3,0-44.8,16.8-44.8,45C1175.1,937.6,1188.4,959.3,1219.9,959.3z"/>
				<path class="st1" d="M1315.6,806.7h23.3v25.7h-23.3V806.7z M1315.6,852.4h23.3v122.3h-23.3V852.4z"/>
				<path class="st1" d="M1476.9,852.4h23.3v112c0,43.9-21,61.6-71.2,61.6c-26.4,0-56.7-4.2-61.6-38h23.3
					c4.4,15.9,18.2,19.8,40.6,19.8c32.9,0,45.5-16.8,45.5-36.9v-17.7h-0.5c-13.1,18.7-31.5,22.6-47.4,22.6c-32.7,0-67-17.7-67-63
					c0-45.5,34.1-63.3,66.8-63.3c20.3,0,38.5,6.8,47.6,20.8h0.5V852.4z M1431.8,869.3c-28.7,0-45,18.7-45,43.9s16.3,43.2,45,43.2
					c28.2,0,45-18,45-43.2S1460.1,869.3,1431.8,869.3z"/>
				<path class="st1" d="M1713.1,897c0-22.4-14.2-29.2-29.4-29.2c-21.2,0-40.1,10-40.1,32.9v74h-23.3V897
					c0-22.4-14.2-29.2-29.4-29.2c-21.2,0-40.1,12.4-40.1,36.4v70.5h-23.3V852.4h23.3v18.4h0.5c11.4-17,30.1-22.6,47.8-22.6
					c15.9,0,31.5,6.5,41.5,22.6c11.2-14,26.1-22.6,49.5-22.6c12.4,0,46.4,5.8,46.4,43.2v83.3h-23.3V897z"/>
			</g>
		</g>
	</g>
</g>
</svg>
