<?xml version="1.0" encoding="utf-8"?>
<!-- Generator: Adobe Illustrator 25.4.1, SVG Export Plug-In . SVG Version: 6.00 Build 0)  -->
<svg version="1.1" id="Layer_1" xmlns="http://www.w3.org/2000/svg" xmlns:xlink="http://www.w3.org/1999/xlink" x="0px" y="0px"
	 viewBox="0 0 72 13.4" style="enable-background:new 0 0 72 13.4;" xml:space="preserve">
<style type="text/css">
	.st0{fill-rule:evenodd;clip-rule:evenodd;fill:#14232D;}
	.st1{fill-rule:evenodd;clip-rule:evenodd;fill:#FFFFFF;filter:url(#Adobe_OpacityMaskFilter);}
	.st2{mask:url(#a_00000093860592484265784150000017397818189627472273_);}
	
		.st3{fill-rule:evenodd;clip-rule:evenodd;fill:#FFFFFF;filter:url(#Adobe_OpacityMaskFilter_00000037666670609762856830000008656791994830897851_);}
	.st4{mask:url(#a_00000080199049764174483590000017783281231410590343_);}
	
		.st5{fill-rule:evenodd;clip-rule:evenodd;fill:#FFFFFF;filter:url(#Adobe_OpacityMaskFilter_00000078767257840627423010000000060605199105970829_);}
	.st6{mask:url(#a_00000088128989563820490520000013312925754916518063_);}
</style>
<path class="st0" d="M2.4,12.4c2,0.8,4.1,1.1,6.1,1c1.9,0.1,3.7-0.2,5.4-0.9c1.3-0.5,2.2-1.9,2.1-3.3c0.1-0.9-0.3-1.8-1-2.4
	c-0.7-0.6-1.6-0.9-2.5-1c-1-0.2-2.5-0.3-4.5-0.5C7,5.4,6,5.2,5,5.1C4.5,5,4.1,4.9,3.7,4.6C3.5,4.4,3.3,4.2,3.4,3.9
	c0-0.3,0.1-0.6,0.3-0.8C4,2.8,4.5,2.6,4.9,2.6c0.9-0.1,1.8-0.2,2.7-0.2c1,0,2,0.1,3,0.2c0.6,0.1,1.1,0.3,1.6,0.6
	c0.3,0.3,0.5,0.7,0.5,1.1v0.2h2.9l0-0.2c0-1.4-0.8-2.7-2.1-3.3C11.7,0.3,9.8-0.1,7.9,0C6-0.1,4.2,0.2,2.5,0.8c-1.2,0.4-2,1.6-2,2.9
	c0,0.8,0.2,1.7,0.8,2.3C2,6.7,2.8,7.1,3.7,7.3C5.1,7.6,6.5,7.8,8,7.8c1.6,0.1,2.8,0.2,3.5,0.3c0.5,0,1,0.2,1.4,0.4
	c0.2,0.2,0.3,0.5,0.3,0.8c0,0.5-0.3,0.9-1,1.2C11,10.9,9.7,11.1,8.5,11c-1.5,0.1-3-0.1-4.4-0.6c-0.7-0.2-1.2-0.9-1.2-1.6V8.6H0
	l0,0.3C0,10.4,0.9,11.8,2.4,12.4"/>
<polygon class="st0" points="20.7,7.9 30.6,7.9 30.6,13.1 33.3,13.1 33.3,0.3 30.6,0.3 30.6,5.5 20.7,5.5 20.7,0.3 18,0.3 18,13.1 
	20.7,13.1 "/>
<defs>
	<filter id="Adobe_OpacityMaskFilter" filterUnits="userSpaceOnUse" x="35.8" y="0.3" width="2.7" height="12.7">
		<feColorMatrix  type="matrix" values="1 0 0 0 0  0 1 0 0 0  0 0 1 0 0  0 0 0 1 0"/>
	</filter>
</defs>
<mask maskUnits="userSpaceOnUse" x="35.8" y="0.3" width="2.7" height="12.7" id="a_00000093860592484265784150000017397818189627472273_">
	<polygon class="st1" points="-67.9,56.2 126.1,56.2 126.1,-13.8 -67.9,-13.8 	"/>
</mask>
<g class="st2">
	<polygon class="st0" points="35.8,13.1 38.5,13.1 38.5,0.3 35.8,0.3 	"/>
</g>
<defs>
	
		<filter id="Adobe_OpacityMaskFilter_00000147938499330950527450000014308769503473553560_" filterUnits="userSpaceOnUse" x="40.9" y="0.3" width="13.3" height="12.7">
		<feColorMatrix  type="matrix" values="1 0 0 0 0  0 1 0 0 0  0 0 1 0 0  0 0 0 1 0"/>
	</filter>
</defs>
<mask maskUnits="userSpaceOnUse" x="40.9" y="0.3" width="13.3" height="12.7" id="a_00000080199049764174483590000017783281231410590343_">
	
		<polygon style="fill-rule:evenodd;clip-rule:evenodd;fill:#FFFFFF;filter:url(#Adobe_OpacityMaskFilter_00000147938499330950527450000014308769503473553560_);" points="
		-67.9,56.2 126.1,56.2 126.1,-13.8 -67.9,-13.8 	"/>
</mask>
<g class="st4">
	<polygon class="st0" points="43.6,8.9 53.2,8.9 53.2,6.4 43.6,6.4 43.6,2.8 54.2,2.8 54.2,0.3 40.9,0.3 40.9,13.1 43.6,13.1 	"/>
</g>
<defs>
	
		<filter id="Adobe_OpacityMaskFilter_00000149369672599536735710000000929136322932747407_" filterUnits="userSpaceOnUse" x="55.9" y="0.3" width="15.4" height="12.7">
		<feColorMatrix  type="matrix" values="1 0 0 0 0  0 1 0 0 0  0 0 1 0 0  0 0 0 1 0"/>
	</filter>
</defs>
<mask maskUnits="userSpaceOnUse" x="55.9" y="0.3" width="15.4" height="12.7" id="a_00000088128989563820490520000013312925754916518063_">
	
		<polygon style="fill-rule:evenodd;clip-rule:evenodd;fill:#FFFFFF;filter:url(#Adobe_OpacityMaskFilter_00000149369672599536735710000000929136322932747407_);" points="
		-67.9,56.2 126.1,56.2 126.1,-13.8 -67.9,-13.8 	"/>
</mask>
<g class="st6">
	<polygon class="st0" points="62.2,13.1 64.9,13.1 64.9,2.8 71.3,2.8 71.3,0.3 55.9,0.3 55.9,2.8 62.2,2.8 	"/>
</g>
</svg>
