<?xml version="1.0" encoding="utf-8"?>
<!-- Generator: Adobe Illustrator 25.4.1, SVG Export Plug-In . SVG Version: 6.00 Build 0)  -->
<svg version="1.1" id="Layer_1" xmlns="http://www.w3.org/2000/svg" xmlns:xlink="http://www.w3.org/1999/xlink" x="0px" y="0px"
	 viewBox="0 0 126 13.4" style="enable-background:new 0 0 126 13.4;" xml:space="preserve">
<style type="text/css">
	.st0{fill-rule:evenodd;clip-rule:evenodd;fill:#FFFFFF;filter:url(#Adobe_OpacityMaskFilter);}
	.st1{mask:url(#a_00000047040218007385063570000004702535549803619753_);}
	.st2{fill-rule:evenodd;clip-rule:evenodd;fill:#14232D;}
	
		.st3{fill-rule:evenodd;clip-rule:evenodd;fill:#FFFFFF;filter:url(#Adobe_OpacityMaskFilter_00000009547867126959756920000002877497325642150801_);}
	.st4{mask:url(#a_00000096056945655597816190000008886141328453948801_);}
	
		.st5{fill-rule:evenodd;clip-rule:evenodd;fill:#FFFFFF;filter:url(#Adobe_OpacityMaskFilter_00000056413028744818691360000015827875882275290550_);}
	.st6{mask:url(#a_00000123433031436306684140000017072462900850322852_);}
	
		.st7{fill-rule:evenodd;clip-rule:evenodd;fill:#FFFFFF;filter:url(#Adobe_OpacityMaskFilter_00000123428691180263506500000007709990861859812790_);}
	.st8{mask:url(#a_00000176734907664575211260000003933418353649112761_);}
	
		.st9{fill-rule:evenodd;clip-rule:evenodd;fill:#FFFFFF;filter:url(#Adobe_OpacityMaskFilter_00000175282509547015892280000012697963058622448787_);}
	.st10{mask:url(#a_00000115507810614453467650000015967383930361816507_);}
	
		.st11{fill-rule:evenodd;clip-rule:evenodd;fill:#FFFFFF;filter:url(#Adobe_OpacityMaskFilter_00000127727544169047498000000002171749707570332815_);}
	.st12{mask:url(#a_00000065052983953776381710000005367103581922562751_);}
	
		.st13{fill-rule:evenodd;clip-rule:evenodd;fill:#FFFFFF;filter:url(#Adobe_OpacityMaskFilter_00000101788877584065457800000009339100720017855658_);}
	.st14{mask:url(#a_00000075127286422835774960000006344873482471265699_);}
	
		.st15{fill-rule:evenodd;clip-rule:evenodd;fill:#FFFFFF;filter:url(#Adobe_OpacityMaskFilter_00000139984435155470565200000009041943237589004693_);}
	.st16{mask:url(#a_00000118389889323264168480000006542961509041749664_);}
</style>
<defs>
	<filter id="Adobe_OpacityMaskFilter" filterUnits="userSpaceOnUse" x="0" y="0.3" width="14.6" height="12.7">
		<feColorMatrix  type="matrix" values="1 0 0 0 0  0 1 0 0 0  0 0 1 0 0  0 0 0 1 0"/>
	</filter>
</defs>
<mask maskUnits="userSpaceOnUse" x="0" y="0.3" width="14.6" height="12.7" id="a_00000047040218007385063570000004702535549803619753_">
	<polygon class="st0" points="-68.1,38.8 125.9,38.8 125.9,-31.2 -68.1,-31.2 	"/>
</mask>
<g class="st1">
	<path class="st2" d="M11.3,6.4c-0.3,0.3-0.6,0.5-1,0.6c-0.5,0.1-1,0.1-1.5,0.1H2.7V2.8h6.1c0.5,0,1,0,1.5,0.1
		c0.4,0.1,0.7,0.3,1,0.6c0.3,0.4,0.5,0.9,0.4,1.5C11.8,5.5,11.6,6,11.3,6.4 M14.6,5c0-0.9-0.2-1.7-0.6-2.5c-0.4-0.7-1-1.3-1.7-1.6
		c-0.8-0.4-1.7-0.6-2.6-0.5H0v12.7h2.7V9.6h7c0.9,0,1.8-0.2,2.6-0.5C13,8.7,13.6,8.1,14,7.4C14.4,6.7,14.6,5.8,14.6,5"/>
</g>
<defs>
	
		<filter id="Adobe_OpacityMaskFilter_00000090259146513807529580000008935648454016378544_" filterUnits="userSpaceOnUse" x="13.5" y="0.3" width="17.8" height="12.7">
		<feColorMatrix  type="matrix" values="1 0 0 0 0  0 1 0 0 0  0 0 1 0 0  0 0 0 1 0"/>
	</filter>
</defs>
<mask maskUnits="userSpaceOnUse" x="13.5" y="0.3" width="17.8" height="12.7" id="a_00000096056945655597816190000008886141328453948801_">
	
		<polygon style="fill-rule:evenodd;clip-rule:evenodd;fill:#FFFFFF;filter:url(#Adobe_OpacityMaskFilter_00000090259146513807529580000008935648454016378544_);" points="
		-68.1,38.8 125.9,38.8 125.9,-31.2 -68.1,-31.2 	"/>
</mask>
<g class="st4">
	<path class="st2" d="M19.4,8l2.9-5.1L25.3,8L19.4,8z M20.8,0.3l-7.3,12.7h3.1l1.5-2.6h8.6l1.5,2.6h3.1L23.9,0.3H20.8z"/>
</g>
<defs>
	
		<filter id="Adobe_OpacityMaskFilter_00000151517981025071240130000006821577538730439809_" filterUnits="userSpaceOnUse" x="32.5" y="0.3" width="14.3" height="12.7">
		<feColorMatrix  type="matrix" values="1 0 0 0 0  0 1 0 0 0  0 0 1 0 0  0 0 0 1 0"/>
	</filter>
</defs>
<mask maskUnits="userSpaceOnUse" x="32.5" y="0.3" width="14.3" height="12.7" id="a_00000123433031436306684140000017072462900850322852_">
	
		<polygon style="fill-rule:evenodd;clip-rule:evenodd;fill:#FFFFFF;filter:url(#Adobe_OpacityMaskFilter_00000151517981025071240130000006821577538730439809_);" points="
		-68.1,38.8 125.9,38.8 125.9,-31.2 -68.1,-31.2 	"/>
</mask>
<g class="st6">
	<path class="st2" d="M43.6,5.9c-0.2,0.3-0.5,0.4-0.9,0.5c-0.5,0.1-0.9,0.1-1.4,0.1h-6.1V2.8h6.1c0.5,0,1,0,1.4,0.1
		c0.3,0.1,0.7,0.2,0.9,0.5C43.9,3.7,44,4.2,44,4.6C44,5.1,43.9,5.5,43.6,5.9 M46.8,4.3c0.1-1.2-0.4-2.3-1.3-3
		c-1.1-0.7-2.3-1-3.6-0.9h-9.3v12.7h2.7V8.9h7.3c0.3,0,0.7,0,1,0.1c0.2,0.1,0.3,0.2,0.4,0.3C44,9.7,44,9.9,44,10.2v2.8h2.7V9.7
		c0-0.6-0.2-1.2-0.5-1.7c-0.2-0.3-0.5-0.5-0.9-0.6C46.3,6.7,46.9,5.5,46.8,4.3"/>
</g>
<defs>
	
		<filter id="Adobe_OpacityMaskFilter_00000018939788862670438420000000562929743936753541_" filterUnits="userSpaceOnUse" x="48" y="0.3" width="17.8" height="12.7">
		<feColorMatrix  type="matrix" values="1 0 0 0 0  0 1 0 0 0  0 0 1 0 0  0 0 0 1 0"/>
	</filter>
</defs>
<mask maskUnits="userSpaceOnUse" x="48" y="0.3" width="17.8" height="12.7" id="a_00000176734907664575211260000003933418353649112761_">
	
		<polygon style="fill-rule:evenodd;clip-rule:evenodd;fill:#FFFFFF;filter:url(#Adobe_OpacityMaskFilter_00000018939788862670438420000000562929743936753541_);" points="
		-68.1,38.8 125.9,38.8 125.9,-31.2 -68.1,-31.2 	"/>
</mask>
<g class="st8">
	<path class="st2" d="M53.9,8l2.9-5.1L59.8,8L53.9,8z M55.3,0.3L48,13.1h3.1l1.5-2.6h8.6l1.5,2.6h3.1L58.4,0.3H55.3z"/>
</g>
<defs>
	
		<filter id="Adobe_OpacityMaskFilter_00000173870026448416951550000018157393845389135529_" filterUnits="userSpaceOnUse" x="67" y="0.3" width="15.2" height="12.7">
		<feColorMatrix  type="matrix" values="1 0 0 0 0  0 1 0 0 0  0 0 1 0 0  0 0 0 1 0"/>
	</filter>
</defs>
<mask maskUnits="userSpaceOnUse" x="67" y="0.3" width="15.2" height="12.7" id="a_00000115507810614453467650000015967383930361816507_">
	
		<polygon style="fill-rule:evenodd;clip-rule:evenodd;fill:#FFFFFF;filter:url(#Adobe_OpacityMaskFilter_00000173870026448416951550000018157393845389135529_);" points="
		-68.1,38.8 125.9,38.8 125.9,-31.2 -68.1,-31.2 	"/>
</mask>
<g class="st10">
	<path class="st2" d="M78.9,9.1c-0.3,0.5-0.8,0.9-1.4,1.1c-0.8,0.2-1.7,0.4-2.6,0.3h-5.1V2.8h5.1c0.9,0,1.8,0.1,2.6,0.3
		c0.6,0.2,1.1,0.6,1.4,1.1c0.4,0.8,0.5,1.6,0.5,2.4C79.4,7.5,79.2,8.4,78.9,9.1 M79.1,1.1L79.1,1.1c-1-0.5-2-0.7-3.1-0.7h-9v12.7h9
		c1.1,0,2.2-0.2,3.1-0.7c0.9-0.5,1.7-1.2,2.3-2.1c0.6-1.1,0.9-2.3,0.8-3.5c0-1.2-0.3-2.4-0.8-3.5C80.8,2.3,80.1,1.5,79.1,1.1"/>
</g>
<defs>
	
		<filter id="Adobe_OpacityMaskFilter_00000178919805136624905500000002504466246391056044_" filterUnits="userSpaceOnUse" x="84.2" y="0.3" width="2.7" height="12.7">
		<feColorMatrix  type="matrix" values="1 0 0 0 0  0 1 0 0 0  0 0 1 0 0  0 0 0 1 0"/>
	</filter>
</defs>
<mask maskUnits="userSpaceOnUse" x="84.2" y="0.3" width="2.7" height="12.7" id="a_00000065052983953776381710000005367103581922562751_">
	
		<polygon style="fill-rule:evenodd;clip-rule:evenodd;fill:#FFFFFF;filter:url(#Adobe_OpacityMaskFilter_00000178919805136624905500000002504466246391056044_);" points="
		-68.1,38.8 125.9,38.8 125.9,-31.2 -68.1,-31.2 	"/>
</mask>
<g class="st12">
	<polygon class="st2" points="84.2,13.1 86.9,13.1 86.9,0.3 84.2,0.3 	"/>
</g>
<defs>
	
		<filter id="Adobe_OpacityMaskFilter_00000010280846242931183600000011776497478605074305_" filterUnits="userSpaceOnUse" x="88.8" y="0" width="15.7" height="13.4">
		<feColorMatrix  type="matrix" values="1 0 0 0 0  0 1 0 0 0  0 0 1 0 0  0 0 0 1 0"/>
	</filter>
</defs>
<mask maskUnits="userSpaceOnUse" x="88.8" y="0" width="15.7" height="13.4" id="a_00000075127286422835774960000006344873482471265699_">
	
		<polygon style="fill-rule:evenodd;clip-rule:evenodd;fill:#FFFFFF;filter:url(#Adobe_OpacityMaskFilter_00000010280846242931183600000011776497478605074305_);" points="
		-68.1,38.8 125.9,38.8 125.9,-31.2 -68.1,-31.2 	"/>
</mask>
<g class="st14">
	<path class="st2" d="M93.6,3.2c1-0.5,2.1-0.8,3.3-0.7c1.2-0.1,2.3,0.2,3.3,0.7c0.7,0.4,1.3,1,1.4,1.8l0,0.2h2.9l0-0.3
		c-0.1-0.9-0.5-1.8-1.1-2.5c-0.7-0.8-1.6-1.4-2.6-1.8C99.5,0.2,98.2,0,96.9,0c-1.5,0-2.9,0.2-4.3,0.8c-1.1,0.5-2.1,1.3-2.8,2.3
		c-0.7,1.1-1,2.3-1,3.6c0,1.3,0.3,2.5,1,3.6c0.7,1,1.7,1.9,2.9,2.3c1.4,0.6,2.9,0.8,4.4,0.8c1.2,0,2.5-0.1,3.7-0.4
		c1.3-0.4,2.5-0.9,3.6-1.5l0.1-0.1V6.2h-8v2.3h5.3v1.6c-0.7,0.3-1.4,0.5-2.1,0.7c-0.9,0.2-1.7,0.2-2.6,0.2c-1.2,0.1-2.3-0.2-3.3-0.7
		c-0.7-0.4-1.3-1-1.6-1.7c-0.3-0.6-0.4-1.2-0.4-1.9c0-0.7,0.1-1.3,0.4-1.9C92.4,4.1,92.9,3.6,93.6,3.2"/>
</g>
<defs>
	
		<filter id="Adobe_OpacityMaskFilter_00000052808002139016406990000017583017735476972697_" filterUnits="userSpaceOnUse" x="106.6" y="0.3" width="19.3" height="12.7">
		<feColorMatrix  type="matrix" values="1 0 0 0 0  0 1 0 0 0  0 0 1 0 0  0 0 0 1 0"/>
	</filter>
</defs>
<mask maskUnits="userSpaceOnUse" x="106.6" y="0.3" width="19.3" height="12.7" id="a_00000118389889323264168480000006542961509041749664_">
	
		<polygon style="fill-rule:evenodd;clip-rule:evenodd;fill:#FFFFFF;filter:url(#Adobe_OpacityMaskFilter_00000052808002139016406990000017583017735476972697_);" points="
		-68.1,38.8 125.9,38.8 125.9,-31.2 -68.1,-31.2 	"/>
</mask>
<g class="st16">
	<polygon class="st2" points="122.1,0.3 116.3,9.8 110.5,0.3 106.6,0.3 106.6,13.1 109.3,13.1 109.3,3.5 115.1,13.1 117.4,13.1 
		123.2,3.5 123.2,13.1 125.9,13.1 125.9,0.3 	"/>
</g>
</svg>
